<?xml version="1.0" encoding="UTF-8"?>
<svg fill="#000000" width="800px" height="800px" version="1.1" viewBox="144 144 512 512" xmlns="http://www.w3.org/2000/svg">
 <g>
  <path d="m447.23 226.81c0-16.871-9.0039-32.465-23.617-40.902s-32.617-8.4375-47.23 0c-14.613 8.4375-23.617 24.031-23.617 40.902h-39.359v47.23l173.18 0.003906v-47.234z"/>
  <path d="m281.92 297.66v251.9c0 2.0898 0.82812 4.0898 2.3047 5.5664 1.4766 1.4766 3.4805 2.3047 5.5664 2.3047h220.42c2.0859 0 4.0898-0.82812 5.5664-2.3047 1.4766-1.4766 2.3047-3.4766 2.3047-5.5664v-251.9c0-2.0898-0.82812-4.0938-2.3047-5.5664-1.4766-1.4766-3.4805-2.3086-5.5664-2.3086h-220.42c-4.3477 0-7.8711 3.5273-7.8711 7.875zm196.8 228.29h-62.977c-4.3477 0-7.8711-3.5234-7.8711-7.8711s3.5234-7.8711 7.8711-7.8711h62.977c4.3477 0 7.8711 3.5234 7.8711 7.8711s-3.5234 7.8711-7.8711 7.8711zm0-39.359h-31.488c-4.3477 0-7.8711-3.5234-7.8711-7.8711s3.5234-7.8711 7.8711-7.8711h31.488c4.3477 0 7.8711 3.5234 7.8711 7.8711s-3.5234 7.8711-7.8711 7.8711zm7.8711-47.23c0 2.0859-0.82812 4.0898-2.3047 5.5664-1.4766 1.4766-3.4805 2.3047-5.5664 2.3047h-62.977c-4.3477 0-7.8711-3.5234-7.8711-7.8711s3.5234-7.8711 7.8711-7.8711h62.977c2.0859 0 4.0898 0.82812 5.5664 2.3047 1.4766 1.4766 2.3047 3.4766 2.3047 5.5664zm-147.29-37.078 47.23-47.23h0.003906c2.6602-2.6367 6.8086-3.0312 9.918-0.94531l17.789 11.809 24.012-28.891h-22.516c-4.3477 0-7.8711-3.5273-7.8711-7.875 0-4.3477 3.5234-7.8711 7.8711-7.8711h39.359c0.53125 0.042968 1.0586 0.12109 1.5742 0.23828 0.23438 0.078125 0.55078 0.078125 0.86719 0.15625 0.89453 0.33594 1.7422 0.78516 2.5195 1.3398 0 0.042969 0.035156 0.078125 0.078125 0.078125 0.15625 0.15625 0.23438 0.31641 0.39453 0.47266 0.50781 0.49609 0.95312 1.0508 1.3359 1.6523 0.15625 0.39453 0.31641 0.70703 0.47266 1.1016 0.15625 0.39453 0.31641 0.55078 0.39453 0.94531l7.8711 31.488c1.043 4.2148-1.5312 8.4766-5.7461 9.5234-4.2148 1.0391-8.4766-1.5312-9.5234-5.7461l-4.0938-16.453-29.441 35.344v0.003906c-2.5664 3.0938-7.0586 3.7422-10.391 1.4961l-18.262-12.121-42.668 42.668v-0.003906c-3.1055 3.043-8.0742 3.043-11.18 0-3.0703-3.0938-3.0703-8.0859 0-11.18zm-18.027 29.207h62.977c4.3477 0 7.8711 3.5234 7.8711 7.8711s-3.5234 7.8711-7.8711 7.8711h-62.977c-4.3477 0-7.8711-3.5234-7.8711-7.8711s3.5234-7.8711 7.8711-7.8711zm0 39.359h94.465c4.3477 0 7.8711 3.5234 7.8711 7.8711s-3.5234 7.8711-7.8711 7.8711h-94.465c-4.3477 0-7.8711-3.5234-7.8711-7.8711s3.5234-7.8711 7.8711-7.8711zm0 39.359h62.977c4.3477 0 7.8711 3.5234 7.8711 7.8711s-3.5234 7.8711-7.8711 7.8711h-62.977c-4.3477 0-7.8711-3.5234-7.8711-7.8711s3.5234-7.8711 7.8711-7.8711z"/>
  <path d="m533.82 226.81h-31.488v47.23h7.8711v0.003906c6.2578 0.019531 12.254 2.5117 16.68 6.9375 4.4219 4.4258 6.918 10.422 6.9375 16.68v251.9c-0.019531 6.2578-2.5156 12.254-6.9375 16.68-4.4258 4.4258-10.422 6.918-16.68 6.9375h-220.42c-6.2578-0.019532-12.254-2.5117-16.676-6.9375-4.4258-4.4258-6.9219-10.422-6.9375-16.68v-251.9c0.015625-6.2578 2.5117-12.254 6.9375-16.68 4.4219-4.4258 10.418-6.918 16.676-6.9375h7.8711l0.003906-47.234h-31.488c-10.441 0-20.453 4.1484-27.832 11.531-7.3828 7.3789-11.531 17.391-11.531 27.832v314.88c0 10.438 4.1484 20.449 11.531 27.832 7.3789 7.3828 17.391 11.527 27.832 11.527h267.65c10.438 0 20.449-4.1445 27.832-11.527 7.3789-7.3828 11.527-17.395 11.527-27.832v-314.88c0-10.441-4.1484-20.453-11.527-27.832-7.3828-7.3828-17.395-11.531-27.832-11.531z"/>
 </g>
</svg>
